<mxfile host="65bd71144e">
    <diagram id="zaUrqFMK4C-lqB4-PGLN" name="Page-1">
        <mxGraphModel dx="861" dy="1063" grid="0" gridSize="10" guides="1" tooltips="1" connect="1" arrows="1" fold="1" page="0" pageScale="1" pageWidth="850" pageHeight="1100" background="#ffffff" math="0" shadow="0">
            <root>
                <mxCell id="0"/>
                <mxCell id="1" parent="0"/>
                <mxCell id="56" value="&lt;font style=&quot;font-size: 14px;&quot;&gt;heapify 时间复杂度证明&lt;br&gt;&lt;/font&gt;" style="text;html=1;strokeColor=#82b366;fillColor=#d5e8d4;align=center;verticalAlign=middle;whiteSpace=wrap;rounded=0;fontSize=15;fontColor=#000000;" parent="1" vertex="1">
                    <mxGeometry x="335" y="10" width="180" height="40" as="geometry"/>
                </mxCell>
                <mxCell id="57" value="" style="line;strokeWidth=1;html=1;fontColor=#000000;dashed=1;fillColor=#FFFFFF;strokeColor=#FFFFFF;" parent="1" vertex="1">
                    <mxGeometry x="5" y="-30" width="835" height="10" as="geometry"/>
                </mxCell>
                <mxCell id="346" value="" style="endArrow=none;html=1;fontSize=15;fontColor=#000000;" parent="1" edge="1">
                    <mxGeometry width="50" height="50" relative="1" as="geometry">
                        <mxPoint x="105" y="169" as="sourcePoint"/>
                        <mxPoint x="155" y="209" as="targetPoint"/>
                    </mxGeometry>
                </mxCell>
                <mxCell id="347" value="" style="endArrow=none;html=1;fontSize=15;fontColor=#000000;" parent="1" edge="1">
                    <mxGeometry width="50" height="50" relative="1" as="geometry">
                        <mxPoint x="305" y="169" as="sourcePoint"/>
                        <mxPoint x="255" y="209" as="targetPoint"/>
                    </mxGeometry>
                </mxCell>
                <mxCell id="348" value="" style="endArrow=none;html=1;fontSize=15;fontColor=#000000;startArrow=none;" parent="1" source="388" edge="1">
                    <mxGeometry width="50" height="50" relative="1" as="geometry">
                        <mxPoint x="305" y="169" as="sourcePoint"/>
                        <mxPoint x="355.0000000000002" y="209" as="targetPoint"/>
                    </mxGeometry>
                </mxCell>
                <mxCell id="349" value="" style="endArrow=none;html=1;fontSize=15;fontColor=#000000;startArrow=none;" parent="1" source="388" edge="1">
                    <mxGeometry width="50" height="50" relative="1" as="geometry">
                        <mxPoint x="330" y="259" as="sourcePoint"/>
                        <mxPoint x="355.0000000000002" y="209" as="targetPoint"/>
                    </mxGeometry>
                </mxCell>
                <mxCell id="350" value="" style="endArrow=none;html=1;fontSize=15;fontColor=#000000;" parent="1" edge="1">
                    <mxGeometry width="50" height="50" relative="1" as="geometry">
                        <mxPoint x="280" y="259" as="sourcePoint"/>
                        <mxPoint x="255" y="209" as="targetPoint"/>
                    </mxGeometry>
                </mxCell>
                <mxCell id="351" value="" style="endArrow=none;html=1;fontSize=15;fontColor=#000000;" parent="1" edge="1">
                    <mxGeometry width="50" height="50" relative="1" as="geometry">
                        <mxPoint x="230" y="259" as="sourcePoint"/>
                        <mxPoint x="255" y="209" as="targetPoint"/>
                    </mxGeometry>
                </mxCell>
                <mxCell id="352" value="" style="endArrow=none;html=1;fontSize=15;fontColor=#000000;" parent="1" edge="1">
                    <mxGeometry width="50" height="50" relative="1" as="geometry">
                        <mxPoint x="180" y="259" as="sourcePoint"/>
                        <mxPoint x="155" y="209" as="targetPoint"/>
                    </mxGeometry>
                </mxCell>
                <mxCell id="353" value="" style="endArrow=none;html=1;fontSize=15;fontColor=#000000;" parent="1" edge="1">
                    <mxGeometry width="50" height="50" relative="1" as="geometry">
                        <mxPoint x="130" y="259" as="sourcePoint"/>
                        <mxPoint x="155" y="209" as="targetPoint"/>
                    </mxGeometry>
                </mxCell>
                <mxCell id="354" value="" style="endArrow=none;html=1;fontSize=15;fontColor=#000000;" parent="1" edge="1">
                    <mxGeometry width="50" height="50" relative="1" as="geometry">
                        <mxPoint x="80" y="259" as="sourcePoint"/>
                        <mxPoint x="55" y="209" as="targetPoint"/>
                    </mxGeometry>
                </mxCell>
                <mxCell id="355" value="" style="endArrow=none;html=1;fontSize=15;fontColor=#000000;" parent="1" edge="1">
                    <mxGeometry width="50" height="50" relative="1" as="geometry">
                        <mxPoint x="30" y="259" as="sourcePoint"/>
                        <mxPoint x="55" y="209" as="targetPoint"/>
                    </mxGeometry>
                </mxCell>
                <mxCell id="356" value="" style="endArrow=none;html=1;fontSize=15;fontColor=#000000;" parent="1" edge="1">
                    <mxGeometry width="50" height="50" relative="1" as="geometry">
                        <mxPoint x="105" y="169" as="sourcePoint"/>
                        <mxPoint x="55" y="209" as="targetPoint"/>
                    </mxGeometry>
                </mxCell>
                <mxCell id="357" value="" style="endArrow=none;html=1;fontSize=15;fontColor=#000000;" parent="1" edge="1">
                    <mxGeometry width="50" height="50" relative="1" as="geometry">
                        <mxPoint x="105" y="169" as="sourcePoint"/>
                        <mxPoint x="205" y="139" as="targetPoint"/>
                    </mxGeometry>
                </mxCell>
                <mxCell id="358" value="" style="endArrow=none;html=1;fontSize=15;fontColor=#000000;" parent="1" edge="1">
                    <mxGeometry width="50" height="50" relative="1" as="geometry">
                        <mxPoint x="305" y="169" as="sourcePoint"/>
                        <mxPoint x="205" y="139" as="targetPoint"/>
                    </mxGeometry>
                </mxCell>
                <mxCell id="359" value="" style="ellipse;whiteSpace=wrap;html=1;aspect=fixed;fontSize=15;" parent="1" vertex="1">
                    <mxGeometry x="90" y="154" width="30" height="30" as="geometry"/>
                </mxCell>
                <mxCell id="360" value="" style="ellipse;whiteSpace=wrap;html=1;aspect=fixed;fontSize=15;" parent="1" vertex="1">
                    <mxGeometry x="190" y="124" width="30" height="30" as="geometry"/>
                </mxCell>
                <mxCell id="361" value="" style="ellipse;whiteSpace=wrap;html=1;aspect=fixed;fontSize=15;" parent="1" vertex="1">
                    <mxGeometry x="40" y="194" width="30" height="30" as="geometry"/>
                </mxCell>
                <mxCell id="362" value="" style="ellipse;whiteSpace=wrap;html=1;aspect=fixed;fontSize=15;" parent="1" vertex="1">
                    <mxGeometry x="140" y="194" width="30" height="30" as="geometry"/>
                </mxCell>
                <mxCell id="363" value="" style="ellipse;whiteSpace=wrap;html=1;aspect=fixed;fontSize=15;" parent="1" vertex="1">
                    <mxGeometry x="240" y="194" width="30" height="30" as="geometry"/>
                </mxCell>
                <mxCell id="364" value="" style="ellipse;whiteSpace=wrap;html=1;aspect=fixed;fontSize=15;" parent="1" vertex="1">
                    <mxGeometry x="15" y="244" width="30" height="30" as="geometry"/>
                </mxCell>
                <mxCell id="365" value="" style="ellipse;whiteSpace=wrap;html=1;aspect=fixed;fontSize=15;" parent="1" vertex="1">
                    <mxGeometry x="65" y="244" width="30" height="30" as="geometry"/>
                </mxCell>
                <mxCell id="366" value="" style="ellipse;whiteSpace=wrap;html=1;aspect=fixed;fontSize=15;" parent="1" vertex="1">
                    <mxGeometry x="115" y="244" width="30" height="30" as="geometry"/>
                </mxCell>
                <mxCell id="367" value="" style="ellipse;whiteSpace=wrap;html=1;aspect=fixed;fontSize=15;" parent="1" vertex="1">
                    <mxGeometry x="165" y="244" width="30" height="30" as="geometry"/>
                </mxCell>
                <mxCell id="368" value="" style="ellipse;whiteSpace=wrap;html=1;aspect=fixed;fontSize=15;" parent="1" vertex="1">
                    <mxGeometry x="215" y="244" width="30" height="30" as="geometry"/>
                </mxCell>
                <mxCell id="369" value="" style="ellipse;whiteSpace=wrap;html=1;aspect=fixed;fontSize=15;" parent="1" vertex="1">
                    <mxGeometry x="265" y="244" width="30" height="30" as="geometry"/>
                </mxCell>
                <mxCell id="384" value="" style="endArrow=none;html=1;fontSize=15;fontColor=#000000;startArrow=none;" parent="1" source="386" target="388" edge="1">
                    <mxGeometry width="50" height="50" relative="1" as="geometry">
                        <mxPoint x="305" y="168.99999999999955" as="sourcePoint"/>
                        <mxPoint x="355" y="208.99999999999955" as="targetPoint"/>
                    </mxGeometry>
                </mxCell>
                <mxCell id="385" value="" style="endArrow=none;html=1;fontSize=15;fontColor=#000000;" parent="1" target="386" edge="1">
                    <mxGeometry width="50" height="50" relative="1" as="geometry">
                        <mxPoint x="305" y="168.99999999999955" as="sourcePoint"/>
                        <mxPoint x="334.39339828218294" y="198.39339828218272" as="targetPoint"/>
                    </mxGeometry>
                </mxCell>
                <mxCell id="386" value="" style="ellipse;whiteSpace=wrap;html=1;aspect=fixed;fontSize=15;" parent="1" vertex="1">
                    <mxGeometry x="290" y="154" width="30" height="30" as="geometry"/>
                </mxCell>
                <mxCell id="387" value="" style="endArrow=none;html=1;fontSize=15;fontColor=#000000;" parent="1" target="388" edge="1">
                    <mxGeometry width="50" height="50" relative="1" as="geometry">
                        <mxPoint x="330.0000000000002" y="258.99999999999955" as="sourcePoint"/>
                        <mxPoint x="355" y="208.99999999999955" as="targetPoint"/>
                    </mxGeometry>
                </mxCell>
                <mxCell id="388" value="2" style="ellipse;whiteSpace=wrap;html=1;aspect=fixed;fontSize=15;" parent="1" vertex="1">
                    <mxGeometry x="340" y="194" width="30" height="30" as="geometry"/>
                </mxCell>
                <mxCell id="389" value="" style="ellipse;whiteSpace=wrap;html=1;aspect=fixed;fontSize=15;" parent="1" vertex="1">
                    <mxGeometry x="315" y="244" width="30" height="30" as="geometry"/>
                </mxCell>
                <mxCell id="525" value="" style="endArrow=none;html=1;fontSize=15;fontColor=#000000;" edge="1" parent="1">
                    <mxGeometry width="50" height="50" relative="1" as="geometry">
                        <mxPoint x="385" y="258.9999999999998" as="sourcePoint"/>
                        <mxPoint x="360" y="209" as="targetPoint"/>
                    </mxGeometry>
                </mxCell>
                <mxCell id="526" value="" style="ellipse;whiteSpace=wrap;html=1;aspect=fixed;fontSize=15;" vertex="1" parent="1">
                    <mxGeometry x="365" y="244" width="30" height="30" as="geometry"/>
                </mxCell>
                <mxCell id="390" value="" style="ellipse;whiteSpace=wrap;html=1;aspect=fixed;fontSize=15;" parent="1" vertex="1">
                    <mxGeometry x="340" y="194" width="30" height="30" as="geometry"/>
                </mxCell>
                <mxCell id="548" value="&lt;font style=&quot;font-size: 14px;&quot;&gt;设堆中的节点数量为n&lt;br&gt;&lt;/font&gt;" style="text;html=1;strokeColor=#6c8ebf;fillColor=#dae8fc;align=center;verticalAlign=middle;whiteSpace=wrap;rounded=0;fontSize=15;fontColor=#999999;" vertex="1" parent="1">
                    <mxGeometry x="120" y="76" width="180" height="40" as="geometry"/>
                </mxCell>
                <mxCell id="617" value="Assets" style="childLayout=tableLayout;recursiveResize=0;strokeColor=#98bf21;fillColor=#A7C942;shadow=1;fontColor=#999999;fontSize=15;" vertex="1" parent="1">
                    <mxGeometry x="425" y="80" width="225" height="194" as="geometry"/>
                </mxCell>
                <mxCell id="618" style="shape=tableRow;horizontal=0;startSize=0;swimlaneHead=0;swimlaneBody=0;top=0;left=0;bottom=0;right=0;dropTarget=0;collapsible=0;recursiveResize=0;expand=0;fontStyle=0;strokeColor=inherit;fillColor=#ffffff;fontColor=#999999;fontSize=15;" vertex="1" parent="617">
                    <mxGeometry width="225" height="40" as="geometry"/>
                </mxCell>
                <mxCell id="619" value="&lt;font style=&quot;font-size: 13px;&quot;&gt;层节点高度h&lt;br style=&quot;&quot;&gt;bubble down时间复杂度&lt;/font&gt;" style="connectable=0;recursiveResize=0;strokeColor=inherit;fillColor=#A7C942;align=center;fontStyle=1;fontColor=#FFFFFF;html=1;fontSize=15;" vertex="1" parent="618">
                    <mxGeometry width="155" height="40" as="geometry">
                        <mxRectangle width="155" height="40" as="alternateBounds"/>
                    </mxGeometry>
                </mxCell>
                <mxCell id="620" value="层节点数" style="connectable=0;recursiveResize=0;strokeColor=inherit;fillColor=#A7C942;align=center;fontStyle=1;fontColor=#FFFFFF;html=1;fontSize=13;" vertex="1" parent="618">
                    <mxGeometry x="155" width="70" height="40" as="geometry">
                        <mxRectangle width="70" height="40" as="alternateBounds"/>
                    </mxGeometry>
                </mxCell>
                <mxCell id="622" value="" style="shape=tableRow;horizontal=0;startSize=0;swimlaneHead=0;swimlaneBody=0;top=0;left=0;bottom=0;right=0;dropTarget=0;collapsible=0;recursiveResize=0;expand=0;fontStyle=0;strokeColor=inherit;fillColor=#ffffff;fontColor=#999999;fontSize=15;" vertex="1" parent="617">
                    <mxGeometry y="40" width="225" height="35" as="geometry"/>
                </mxCell>
                <mxCell id="623" value="log n" style="connectable=0;recursiveResize=0;strokeColor=inherit;fillColor=inherit;align=center;whiteSpace=wrap;html=1;fontColor=#999999;fontSize=15;fontStyle=1" vertex="1" parent="622">
                    <mxGeometry width="155" height="35" as="geometry">
                        <mxRectangle width="155" height="35" as="alternateBounds"/>
                    </mxGeometry>
                </mxCell>
                <mxCell id="624" value="1" style="connectable=0;recursiveResize=0;strokeColor=inherit;fillColor=inherit;align=center;whiteSpace=wrap;html=1;fontColor=#999999;fontSize=15;fontStyle=1" vertex="1" parent="622">
                    <mxGeometry x="155" width="70" height="35" as="geometry">
                        <mxRectangle width="70" height="35" as="alternateBounds"/>
                    </mxGeometry>
                </mxCell>
                <mxCell id="626" value="" style="shape=tableRow;horizontal=0;startSize=0;swimlaneHead=0;swimlaneBody=0;top=0;left=0;bottom=0;right=0;dropTarget=0;collapsible=0;recursiveResize=0;expand=0;fontStyle=1;strokeColor=inherit;fillColor=#EAF2D3;fontColor=#999999;fontSize=15;" vertex="1" parent="617">
                    <mxGeometry y="75" width="225" height="35" as="geometry"/>
                </mxCell>
                <mxCell id="627" value="..." style="connectable=0;recursiveResize=0;strokeColor=inherit;fillColor=inherit;whiteSpace=wrap;html=1;fontColor=#999999;fontSize=15;fontStyle=1" vertex="1" parent="626">
                    <mxGeometry width="155" height="35" as="geometry">
                        <mxRectangle width="155" height="35" as="alternateBounds"/>
                    </mxGeometry>
                </mxCell>
                <mxCell id="628" value="..." style="connectable=0;recursiveResize=0;strokeColor=inherit;fillColor=inherit;whiteSpace=wrap;html=1;fontColor=#999999;fontSize=15;fontStyle=1" vertex="1" parent="626">
                    <mxGeometry x="155" width="70" height="35" as="geometry">
                        <mxRectangle width="70" height="35" as="alternateBounds"/>
                    </mxGeometry>
                </mxCell>
                <mxCell id="630" value="" style="shape=tableRow;horizontal=0;startSize=0;swimlaneHead=0;swimlaneBody=0;top=0;left=0;bottom=0;right=0;dropTarget=0;collapsible=0;recursiveResize=0;expand=0;fontStyle=0;strokeColor=inherit;fillColor=#ffffff;fontColor=#999999;fontSize=15;" vertex="1" parent="617">
                    <mxGeometry y="110" width="225" height="42" as="geometry"/>
                </mxCell>
                <mxCell id="631" value="1" style="connectable=0;recursiveResize=0;strokeColor=inherit;fillColor=inherit;fontStyle=1;align=center;whiteSpace=wrap;html=1;fontColor=#999999;fontSize=15;" vertex="1" parent="630">
                    <mxGeometry width="155" height="42" as="geometry">
                        <mxRectangle width="155" height="42" as="alternateBounds"/>
                    </mxGeometry>
                </mxCell>
                <mxCell id="632" value="n / 4" style="connectable=0;recursiveResize=0;strokeColor=inherit;fillColor=inherit;fontStyle=1;align=center;whiteSpace=wrap;html=1;fontColor=#999999;fontSize=15;" vertex="1" parent="630">
                    <mxGeometry x="155" width="70" height="42" as="geometry">
                        <mxRectangle width="70" height="42" as="alternateBounds"/>
                    </mxGeometry>
                </mxCell>
                <mxCell id="634" value="" style="shape=tableRow;horizontal=0;startSize=0;swimlaneHead=0;swimlaneBody=0;top=0;left=0;bottom=0;right=0;dropTarget=0;collapsible=0;recursiveResize=0;expand=0;fontStyle=1;strokeColor=inherit;fillColor=#EAF2D3;fontColor=#999999;fontSize=15;" vertex="1" parent="617">
                    <mxGeometry y="152" width="225" height="42" as="geometry"/>
                </mxCell>
                <mxCell id="635" value="0" style="connectable=0;recursiveResize=0;strokeColor=inherit;fillColor=inherit;whiteSpace=wrap;html=1;fontColor=#999999;fontSize=15;fontStyle=1" vertex="1" parent="634">
                    <mxGeometry width="155" height="42" as="geometry">
                        <mxRectangle width="155" height="42" as="alternateBounds"/>
                    </mxGeometry>
                </mxCell>
                <mxCell id="636" value="n / 2" style="connectable=0;recursiveResize=0;strokeColor=inherit;fillColor=inherit;whiteSpace=wrap;html=1;fontColor=#999999;fontSize=15;fontStyle=1" vertex="1" parent="634">
                    <mxGeometry x="155" width="70" height="42" as="geometry">
                        <mxRectangle width="70" height="42" as="alternateBounds"/>
                    </mxGeometry>
                </mxCell>
                <mxCell id="638" value="Assets" style="childLayout=tableLayout;recursiveResize=0;strokeColor=#98bf21;fillColor=#A7C942;shadow=1;fontColor=#999999;fontSize=15;" vertex="1" parent="1">
                    <mxGeometry x="650" y="80" width="125" height="194" as="geometry"/>
                </mxCell>
                <mxCell id="639" style="shape=tableRow;horizontal=0;startSize=0;swimlaneHead=0;swimlaneBody=0;top=0;left=0;bottom=0;right=0;dropTarget=0;collapsible=0;recursiveResize=0;expand=0;fontStyle=0;strokeColor=inherit;fillColor=#ffffff;fontColor=#999999;fontSize=15;" vertex="1" parent="638">
                    <mxGeometry width="125" height="40" as="geometry"/>
                </mxCell>
                <mxCell id="640" value="层节点数(高度表示)" style="connectable=0;recursiveResize=0;strokeColor=inherit;fillColor=#A7C942;align=center;fontStyle=1;fontColor=#FFFFFF;html=1;fontSize=13;" vertex="1" parent="639">
                    <mxGeometry width="125" height="40" as="geometry">
                        <mxRectangle width="125" height="40" as="alternateBounds"/>
                    </mxGeometry>
                </mxCell>
                <mxCell id="643" value="" style="shape=tableRow;horizontal=0;startSize=0;swimlaneHead=0;swimlaneBody=0;top=0;left=0;bottom=0;right=0;dropTarget=0;collapsible=0;recursiveResize=0;expand=0;fontStyle=0;strokeColor=inherit;fillColor=#ffffff;fontColor=#999999;fontSize=15;" vertex="1" parent="638">
                    <mxGeometry y="40" width="125" height="154" as="geometry"/>
                </mxCell>
                <mxCell id="644" value="n / 2^(h+1)" style="connectable=0;recursiveResize=0;strokeColor=inherit;fillColor=inherit;align=center;whiteSpace=wrap;html=1;fontColor=#999999;fontSize=15;fontStyle=1" vertex="1" parent="643">
                    <mxGeometry width="125" height="154" as="geometry">
                        <mxRectangle width="125" height="154" as="alternateBounds"/>
                    </mxGeometry>
                </mxCell>
                <mxCell id="659" value="" style="line;strokeWidth=1;html=1;fontColor=#000000;dashed=1;fillColor=#FFFFFF;strokeColor=#FFFFFF;" vertex="1" parent="1">
                    <mxGeometry x="2.5" y="310" width="835" height="10" as="geometry"/>
                </mxCell>
            </root>
        </mxGraphModel>
    </diagram>
</mxfile>